<?xml version="1.0" encoding="UTF-8" standalone="no"?>
<svg
   id="Layer_1"
   data-name="Layer 1"
   viewBox="0 0 416.08 348.56"
   width="406"
   height="306"
   class="illustration styles_illustrationTablet__1DWOa"
   version="1.1"
   sodipodi:docname="Watering Plant_Monochromatic.svg"
   inkscape:export-filename="..\Desktop\project\site\img\png\Watering Plant_Monochromatic_2.png"
   inkscape:export-xdpi="500"
   inkscape:export-ydpi="500"
   inkscape:version="1.2.2 (732a01da63, 2022-12-09)"
   xmlns:inkscape="http://www.inkscape.org/namespaces/inkscape"
   xmlns:sodipodi="http://sodipodi.sourceforge.net/DTD/sodipodi-0.dtd"
   xmlns:xlink="http://www.w3.org/1999/xlink"
   xmlns="http://www.w3.org/2000/svg"
   xmlns:svg="http://www.w3.org/2000/svg">
  <sodipodi:namedview
     id="namedview233"
     pagecolor="#ffffff"
     bordercolor="#000000"
     borderopacity="0.25"
     inkscape:showpageshadow="2"
     inkscape:pageopacity="0.0"
     inkscape:pagecheckerboard="0"
     inkscape:deskcolor="#d1d1d1"
     showgrid="false"
     inkscape:zoom="1.1946869"
     inkscape:cx="140.20409"
     inkscape:cy="142.29669"
     inkscape:window-width="1366"
     inkscape:window-height="697"
     inkscape:window-x="-8"
     inkscape:window-y="-8"
     inkscape:window-maximized="1"
     inkscape:current-layer="Layer_1" />
  <defs
     id="defs158">
    <linearGradient
       id="linear-gradient"
       x1="224.51"
       y1="300.8"
       x2="220.13"
       y2="372.97"
       gradientUnits="userSpaceOnUse">
      <stop
         offset="0.01"
         id="stop139" />
      <stop
         offset="1"
         stop-opacity="0"
         id="stop141" />
    </linearGradient>
    <linearGradient
       id="linear-gradient-2"
       x1="340.93"
       y1="329.45"
       x2="364.51"
       y2="329.45"
       xlink:href="#linear-gradient" />
    <linearGradient
       id="linear-gradient-3"
       x1="269.47"
       y1="313.16"
       x2="357.44"
       y2="313.16"
       xlink:href="#linear-gradient" />
    <linearGradient
       id="linear-gradient-4"
       x1="158.64"
       y1="164.15"
       x2="209.09"
       y2="164.15"
       gradientUnits="userSpaceOnUse">
      <stop
         offset="0.01"
         id="stop146" />
      <stop
         offset="0.13"
         stop-opacity="0.69"
         id="stop148" />
      <stop
         offset="1"
         stop-opacity="0"
         id="stop150" />
    </linearGradient>
    <linearGradient
       id="linear-gradient-5"
       x1="183.94"
       y1="300.4"
       x2="180.29"
       y2="367.84"
       xlink:href="#linear-gradient-4" />
    <linearGradient
       id="linear-gradient-6"
       x1="301.08"
       y1="249.97"
       x2="278.97"
       y2="296.38"
       xlink:href="#linear-gradient" />
    <linearGradient
       id="linear-gradient-7"
       x1="317.65"
       y1="242.91"
       x2="283.78"
       y2="247.12"
       xlink:href="#linear-gradient-4" />
    <linearGradient
       id="linear-gradient-8"
       x1="195.46"
       y1="224.97"
       x2="278.56"
       y2="224.97"
       xlink:href="#linear-gradient-4" />
    <linearGradient
       id="linear-gradient-9"
       x1="90.48"
       y1="223.51"
       x2="173.58"
       y2="223.51"
       xlink:href="#linear-gradient-4" />
  </defs>
  <title
     id="title160">Watering Plant</title>
  <path
     d="m 423,266 a 203.64,203.64 0 0 1 -10,41.85 c -3,8.92 -6.79,27.18 -13.62,33.83 -12.89,12.62 -53.86,11.39 -71.48,13.32 -19,2 -38,3.48 -57.13,4.44 q -11,0.55 -21.94,0.91 c -53,1.73 -106,0.28 -159,-1.17 -10.73,-0.31 -21.56,-0.62 -31.91,-3.44 -1.3,-0.35 -2.58,-0.75 -3.85,-1.18 -20.6,-7 -37.42,-24.56 -43.37,-45.54 -6.12,-21.6 -1.09,-45 8.33,-65.41 9.42,-20.41 23,-38.53 35,-57.51 6.69,-10.58 12.91,-21.45 19,-32.41 15.51,-28 30,-56.73 48.56,-82.81 9.4,-13.19 20.25,-26 34.7,-33.31 10.57,-5.33 22.48,-7.41 34.28,-8.34 14.86,-1.17 30.21,-0.54 44.05,5 29.94,12 46.32,43.51 69.18,66.26 32.61,32.45 80.93,49 104.9,88.3 a 104.19,104.19 0 0 1 13,34 137.44,137.44 0 0 1 1.3,43.21 z"
     transform="translate(-8.03,-28.71)"
     fill="#68e1fd"
     opacity="0.18"
     style="display:inline;isolation:isolate;fill:#67ba7c;fill-opacity:1"
     id="path162"
     inkscape:label="sim" />
  <path
     d="m 423,266 a 203.64,203.64 0 0 1 -10,41.85 c -3,8.92 -6.79,27.18 -13.62,33.83 -12.89,12.62 -53.86,11.39 -71.48,13.32 -19,2 -38,3.48 -57.13,4.44 -71.71,-5.89 -144.44,-5.24 -216.69,-4.88 -20.6,-7 -37.42,-24.56 -43.37,-45.54 -6.12,-21.6 -1.09,-45 8.33,-65.41 9.42,-20.41 23,-38.53 35,-57.51 6.69,-10.58 12.91,-21.45 19,-32.41 16.3,-4.7 32.5,-2 45.67,13.33 10.9,12.68 17.2,28.55 25.85,42.85 9.23,15.27 21.62,29.12 37.57,37.1 15.95,7.98 35.81,9.33 51.43,0.71 26,-14.31 32.52,-49.52 55.29,-68.5 5.44,-4.52 12.09,-8.12 19.17,-8 12.24,0.18 21.44,10.86 28.45,20.89 A 430.85,430.85 0 0 1 361,231.5 c 3.77,6.85 7.94,14.34 15.22,17.18 11.59,4.51 23.57,-5 32.13,-14.06 A 82.43,82.43 0 0 1 421.68,222.74 137.44,137.44 0 0 1 423,266 Z"
     transform="translate(-8.03,-28.71)"
     fill="#68e1fd"
     opacity="0.23"
     style="display:inline;isolation:isolate;fill:#67ba7c;fill-opacity:1"
     id="path164"
     inkscape:label="sim" />
  <path
     d="m 316,329.64 c 25.88,-0.16 52,-0.09 77.31,5.44 3.63,0.79 8,2.57 8.2,6.28 0.17,3.13 -2.85,5.4 -5.6,6.91 -27,14.9 -59.13,16.25 -89.44,22.07 -13.28,2.55 -26.45,6 -39.95,6.76 -29.78,1.66 -58.54,-10 -88.05,-14.28 -36.21,-5.31 -73.17,0.43 -109.64,-2.52 -9.24,-0.74 -19.6,-2.75 -24.66,-10.52 a 8.48,8.48 0 0 1 -1.54,-6.45 c 1.18,-4.82 7.46,-5.85 12.41,-5.89 67.49,-0.65 135.07,-5.94 202.7,-7.12 19.37,-0.32 38.79,-0.68 58.26,-0.68 z"
     transform="translate(-8.03,-28.71)"
     fill="#68e1fd"
     id="path166"
     style="display:inline;fill:#67ba7c;fill-opacity:1"
     inkscape:label="sim" />
  <path
     d="m 316,329.64 c 25.88,-0.16 52,-0.09 77.31,5.44 3.63,0.79 8,2.57 8.2,6.28 0.17,3.13 -2.85,5.4 -5.6,6.91 -27,14.9 -59.13,16.25 -89.44,22.07 -13.28,2.55 -26.45,6 -39.95,6.76 -29.78,1.66 -58.54,-10 -88.05,-14.28 -36.21,-5.31 -73.17,0.43 -109.64,-2.52 -9.24,-0.74 -19.6,-2.75 -24.66,-10.52 a 8.48,8.48 0 0 1 -1.54,-6.45 c 1.18,-4.82 7.46,-5.85 12.41,-5.89 67.49,-0.65 135.07,-5.94 202.7,-7.12 19.37,-0.32 38.79,-0.68 58.26,-0.68 z"
     transform="translate(-8.03,-28.71)"
     fill="url(#linear-gradient)"
     id="path168"
     style="display:inline" />
  <path
     d="m 351.65,325 a 7.87,7.87 0 0 1 2.45,1.12 36.23,36.23 0 0 0 8.06,3.48 c 1.11,0.32 2.51,1 2.33,2.12 a 1.83,1.83 0 0 1 -0.84,1.15 8,8 0 0 1 -4.65,1 70.7,70.7 0 0 1 -14.75,-1.13 c -2.79,-0.57 -4.75,-3.3 -2,-5.44 1.75,-1.3 7.39,-2.64 9.4,-2.3 z"
     transform="translate(-8.03,-28.71)"
     fill="#3e3e54"
     id="path170"
     style="display:inline" />
  <path
     d="m 351.65,325 a 7.87,7.87 0 0 1 2.45,1.12 36.23,36.23 0 0 0 8.06,3.48 c 1.11,0.32 2.51,1 2.33,2.12 a 1.83,1.83 0 0 1 -0.84,1.15 8,8 0 0 1 -4.65,1 70.7,70.7 0 0 1 -14.75,-1.13 c -2.79,-0.57 -4.75,-3.3 -2,-5.44 1.75,-1.3 7.39,-2.64 9.4,-2.3 z"
     transform="translate(-8.03,-28.71)"
     fill="url(#linear-gradient-2)"
     id="path172"
     style="display:inline" />
  <path
     d="m 309,294.9 c -11.53,5.75 -23.17,11.57 -32.94,19.65 a 20.45,20.45 0 0 0 -5.57,6.29 7.74,7.74 0 0 0 0.18,7.85 c 1.21,1.72 3.23,2.76 5.17,3.73 5.28,2.65 10.69,5.35 16.61,6.18 a 55.45,55.45 0 0 0 8.93,0.3 c 5.64,-0.11 11.29,-0.22 16.89,-0.82 6.43,-0.68 12.77,-2 19.17,-2.95 a 10.66,10.66 0 0 0 5,-1.59 c 1.38,-1.06 2,-3.21 0.69,-4.38 -0.92,-0.84 -2.36,-0.87 -3.64,-0.85 a 226.61,226.61 0 0 1 -26.7,-1.19 209.41,209.41 0 0 0 21,-4.17 c 5.39,-1.46 10.73,-3.39 15.15,-6.61 4.42,-3.22 7.84,-7.89 8.41,-13.08 0.3,-2.76 -0.2,-5.54 -0.43,-8.31 -0.18,-2.11 -0.28,-4.43 -1.79,-6 -2.07,-2.17 -5.71,-1.95 -8.8,-1.56 L 326.14,290 a 80,80 0 0 0 -8.4,1 c -3.05,0.73 -6.03,2.53 -8.74,3.9 z"
     transform="translate(-8.03,-28.71)"
     fill="#3e3e54"
     id="path174"
     style="display:inline" />
  <path
     d="m 309,294.94 c -11.53,5.77 -23.17,11.62 -32.94,19.74 a 20.63,20.63 0 0 0 -5.57,6.31 7.83,7.83 0 0 0 0.18,7.9 c 1.21,1.72 3.23,2.77 5.17,3.75 5.28,2.66 10.69,5.36 16.61,6.2 a 56.62,56.62 0 0 0 8.93,0.31 c 5.64,-0.12 11.29,-0.23 16.89,-0.83 6.43,-0.69 12.77,-2 19.17,-3 a 10.67,10.67 0 0 0 5,-1.6 c 1.38,-1.07 2,-3.23 0.69,-4.4 -0.92,-0.85 -2.36,-0.87 -3.64,-0.85 a 222.4,222.4 0 0 1 -26.7,-1.21 206.68,206.68 0 0 0 21,-4.18 c 5.39,-1.47 10.73,-3.41 15.15,-6.65 4.42,-3.24 7.84,-7.92 8.41,-13.14 0.3,-2.77 -0.2,-5.56 -0.43,-8.34 -0.18,-2.12 -0.28,-4.45 -1.79,-6 -2.07,-2.18 -5.71,-2 -8.8,-1.57 L 326.14,290 a 77.39,77.39 0 0 0 -8.4,1 c -3.05,0.76 -6.03,2.56 -8.74,3.94 z"
     transform="translate(-8.03,-28.71)"
     fill="url(#linear-gradient-3)"
     id="path176"
     style="display:inline" />
  <path
     d="m 183.05,214.64 c -3.78,-3.35 -10.61,-6.72 -14.62,-9.8 -4.01,-3.08 -7.72,-6.9 -9.2,-11.73 -1.48,-4.83 -0.17,-10.79 4.1,-13.49 a 26.41,26.41 0 0 0 2.94,-1.78 5.63,5.63 0 0 0 -0.77,-8.76 c -4.22,-2.42 -1.77,-10.59 2.09,-13.54 2.8,-2.14 6.94,-2.89 8.42,-6.1 1.75,-3.8 -1.59,-8.2 -0.85,-12.32 0.94,-5.24 7.33,-7 12.24,-9 a 31,31 0 0 0 15.12,-13.51 30.45,30.45 0 0 0 1.32,20.14 c 1.56,3.63 3.84,7 4.8,10.8 a 17.06,17.06 0 0 1 -8.46,18.7 11.08,11.08 0 0 1 4.69,19.59 c -1.63,1.28 -3.59,2.09 -5.16,3.44 -1.57,1.35 -2.7,3.57 -1.89,5.47 1.29,3.05 6,2.7 8.19,5.21 2.19,2.51 0.43,6.89 -2.52,8.61 -2.95,1.72 -6.56,1.69 -10,2.1 -5.26,0.59 -8.39,1.05 -10.44,5.97 z"
     transform="translate(-8.03,-28.71)"
     fill="#68e1fd"
     id="path178"
     style="display:inline;fill:#67ba7c;fill-opacity:1"
     inkscape:label="sim" />
  <path
     d="m 182.87,213.73 c -3.78,-3.35 -10.43,-5.81 -14.44,-8.89 -4.01,-3.08 -7.72,-6.9 -9.2,-11.73 -1.48,-4.83 -0.17,-10.79 4.1,-13.49 a 26.41,26.41 0 0 0 2.94,-1.78 5.63,5.63 0 0 0 -0.77,-8.76 c -4.22,-2.42 -1.77,-10.59 2.09,-13.54 2.8,-2.14 6.94,-2.89 8.42,-6.1 1.75,-3.8 -1.59,-8.2 -0.85,-12.32 0.94,-5.24 7.33,-7 12.24,-9 a 31,31 0 0 0 15.12,-13.51 30.45,30.45 0 0 0 1.32,20.14 c 1.56,3.63 3.84,7 4.8,10.8 a 17.06,17.06 0 0 1 -8.46,18.7 11.08,11.08 0 0 1 4.69,19.59 c -1.63,1.28 -3.59,2.09 -5.16,3.44 -1.57,1.35 -2.7,3.57 -1.89,5.47 1.29,3.05 6,2.7 8.19,5.21 2.19,2.51 0.43,6.89 -2.52,8.61 -2.95,1.72 -6.56,1.69 -10,2.1 -5.26,0.59 -8.58,0.14 -10.62,5.06 z"
     transform="translate(-8.03,-28.71)"
     fill="url(#linear-gradient-4)"
     id="path180"
     style="display:inline" />
  <path
     d="m 156.37,323.07 a 17.35,17.35 0 0 1 31.7,-1.66 c 3.53,-3.73 10,-3.35 14.06,-0.28 4.06,3.07 6.27,8.11 7.45,13.1 q -18.17,1 -36.36,0.86 c -3.72,0 -13.49,1.52 -16.53,-0.69 -3.04,-2.21 -1.47,-8.32 -0.32,-11.33 z"
     transform="translate(-8.03,-28.71)"
     fill="#68e1fd"
     id="path182"
     style="display:inline;fill:#67ba7c;fill-opacity:1"
     inkscape:label="sim" />
  <path
     d="m 156.37,323.07 a 17.35,17.35 0 0 1 31.7,-1.66 c 3.53,-3.73 10,-3.35 14.06,-0.28 4.06,3.07 6.27,8.11 7.45,13.1 q -18.17,1 -36.36,0.86 c -3.72,0 -13.49,1.52 -16.53,-0.69 -3.04,-2.21 -1.47,-8.32 -0.32,-11.33 z"
     transform="translate(-8.03,-28.71)"
     fill="url(#linear-gradient-5)"
     id="path184"
     style="display:inline" />
  <path
     d="m 296.21,280.28 c -8.67,-5.17 -20.39,-1.2 -29.55,-5.43 -2.49,1.35 -7,-1.2 -5.78,1.37 1.22,2.57 -2.73,3.64 -0.45,5.32 8.33,6.12 29.88,10.34 39.39,14.41 a 8.17,8.17 0 0 0 4.46,0.93 c 2.61,-0.43 4.19,-3.05 5.32,-5.45 a 93,93 0 0 0 8.5,-31.23 c 0.39,-4.38 0.46,-8.87 -0.82,-13.08 -1.28,-4.21 -1.72,-7.81 -5.77,-9.52 -2.95,-1.25 -4.45,-1.15 -6.65,1.71 -2.2,2.86 -3.16,7.65 -2.93,10.76 0.75,10.21 -3.47,20.22 -5.72,30.21 z"
     transform="translate(-8.03,-28.71)"
     fill="#faaf90"
     id="path186"
     style="display:inline" />
  <path
     d="m 296.21,280.28 c -8.67,-5.17 -20.39,-1.2 -29.55,-5.43 -2.49,1.35 -7,-1.2 -5.78,1.37 1.22,2.57 -2.73,3.64 -0.45,5.32 8.33,6.12 29.88,10.34 39.39,14.41 a 8.17,8.17 0 0 0 4.46,0.93 c 2.61,-0.43 4.19,-3.05 5.32,-5.45 a 93,93 0 0 0 8.5,-31.23 c 0.39,-4.38 0.46,-8.87 -0.82,-13.08 -1.28,-4.21 -1.72,-7.81 -5.77,-9.52 -2.95,-1.25 -4.45,-1.15 -6.65,1.71 -2.2,2.86 -3.16,7.65 -2.93,10.76 0.75,10.21 -3.47,20.22 -5.72,30.21 z"
     transform="translate(-8.03,-28.71)"
     fill="url(#linear-gradient-6)"
     id="path188"
     style="display:inline" />
  <path
     d="m 300,250.28 a 2.11,2.11 0 0 0 0.15,1.66 3.65,3.65 0 0 0 0.86,1.14 28.93,28.93 0 0 0 14.99,7.92 72.67,72.67 0 0 0 0.61,-14.52 27.28,27.28 0 0 0 -1.87,-9.3 12.8,12.8 0 0 0 -4.57,-5.66 c -2.76,-1.81 -3.14,-5.68 -4.6,-3.05 -2.92,5.3 -1.32,13.27 -5.57,21.81 z"
     transform="translate(-8.03,-28.71)"
     fill="#68e1fd"
     id="path190"
     style="display:inline;fill:#67ba7c;fill-opacity:1"
     inkscape:label="sim" />
  <path
     d="m 300,250.28 a 2,2 0 0 0 0.15,1.66 3.65,3.65 0 0 0 0.86,1.14 28.93,28.93 0 0 0 14.99,7.92 72.67,72.67 0 0 0 0.61,-14.52 27.28,27.28 0 0 0 -1.87,-9.3 12.8,12.8 0 0 0 -4.57,-5.66 c -2.76,-1.81 -2.41,-7.14 -3.87,-4.51 -2.93,5.3 -2.66,17.04 -6.3,23.27 z"
     transform="translate(-8.03,-28.71)"
     fill="url(#linear-gradient-7)"
     id="path192"
     style="display:inline" />
  <path
     d="m 315.63,218.09 c -3.12,1.28 -6.33,2.8 -8.3,5.54 -1.97,2.74 -2.38,6.14 -2.38,9.43 0,11 4.16,21.42 8.28,31.57 l 7.62,18.77 c 1.28,3.16 2.61,6.38 4.91,8.89 3.75,4.09 9.56,5.65 15.1,6.07 7.05,0.53 14.84,-0.82 19.5,-6.14 3.2,-3.67 4.44,-8.75 4.22,-13.62 -0.22,-4.87 -1.74,-9.58 -3.51,-14.12 -6.58,-16.92 -14.51,-29 -27.29,-41.85 -5.33,-5.39 -11.84,-7.14 -18.15,-4.54 z"
     transform="translate(-8.03,-28.71)"
     fill="#68e1fd"
     id="path194"
     style="display:inline;fill:#67ba7c;fill-opacity:1"
     inkscape:label="sim" />
  <path
     d="M295.83,209.77c.38,1.1,1.83,1.27,2.79,1.93,1.57,1.07,2,3.62,3.86,4,1.49.31,3.14-1.06,4.46-.3a2.81,2.81,0,0,1,1,1.41,12.8,12.8,0,0,1,.86,2.89c.15.85.31,1.87,1.09,2.25a2.6,2.6,0,0,0,1,.17,22.34,22.34,0,0,0,6.89-1,4.44,4.44,0,0,0,1.74-.86c1.47-1.31.94-3.67.46-5.58a32.85,32.85,0,0,1-1-8.13c0-3.23.46-6.62-.86-9.57a11.9,11.9,0,0,0-4.2-4.74,9.81,9.81,0,0,0-6.45-2.08c-3.55.39-9,4.24-9.52,8-.23,1.6.17,3.25,0,4.88C297.71,204.91,295.24,208.12,295.83,209.77Z"
     transform="translate(-8.03 -28.71)"
     fill="#faaf90"
     id="path196" />
  <path
     d="M309.33,214.57A25,25,0,0,1,309,218a7,7,0,0,1-7.64,5.25,2.79,2.79,0,0,1-1.4-.56,3.39,3.39,0,0,1-.79-1.33,18.18,18.18,0,0,1-1.5-5.06,6.26,6.26,0,0,1,1.44-4.93,10.71,10.71,0,0,1,3.94-2.14,37.35,37.35,0,0,0,5.89-3,7.55,7.55,0,0,1,2.22-1.1c3.17-.73.8,2.13.15,3.2A14.25,14.25,0,0,0,309.33,214.57Z"
     transform="translate(-8.03 -28.71)"
     fill="#3e3e54"
     id="path198" />
  <path
     d="m 296,189.89 c -2.11,0.65 -4.52,1.13 -5.77,3 a 4.85,4.85 0 0 0 0.89,6.07 6.89,6.89 0 0 0 6.25,1.41 c 3.08,-0.74 6.3,-3.12 9.05,-1.55 2.75,1.57 3.06,6.53 6.25,7 -0.28,-1.62 -0.79,-2.18 -1.07,-3.79 0.91,-2.89 2.16,-0.45 2.5,0.49 a 9.81,9.81 0 0 1 0.31,3 11.17,11.17 0 0 0 2.82,6.83 c 1,1.13 2.59,2.1 4,1.51 1.65,-0.69 1.84,-2.91 1.76,-4.7 q -0.24,-5.74 -0.6,-11.49 a 16,16 0 0 0 -0.79,-4.77 11.27,11.27 0 0 0 -2.83,-4 14.88,14.88 0 0 0 -11.62,-4.34 c -3.98,0.34 -7.15,4.11 -11.15,5.33 z"
     transform="translate(-8.03,-28.71)"
     fill="#3e3e54"
     id="path200"
     style="display:inline" />
  <path
     d="m 318,294 c -11.53,6.18 -23.17,12.43 -32.94,21.13 a 21.7,21.7 0 0 0 -5.57,6.76 c -1.24,2.66 -1.43,6 0.18,8.44 1.21,1.85 3.23,3 5.18,4 5.27,2.85 10.68,5.74 16.6,6.64 a 51.21,51.21 0 0 0 8.93,0.32 c 5.64,-0.11 11.29,-0.23 16.89,-0.88 6.44,-0.73 12.77,-2.16 19.17,-3.17 1.77,-0.28 3.64,-0.57 5,-1.71 1.36,-1.14 2,-3.46 0.69,-4.71 -0.92,-0.91 -2.36,-0.93 -3.64,-0.91 a 208.86,208.86 0 0 1 -26.7,-1.29 197.34,197.34 0 0 0 21,-4.48 c 5.39,-1.57 10.73,-3.65 15.15,-7.11 4.42,-3.46 7.84,-8.48 8.41,-14.07 0.3,-3 -0.2,-5.95 -0.43,-8.93 -0.18,-2.27 -0.28,-4.76 -1.79,-6.46 -2.07,-2.34 -5.71,-2.1 -8.8,-1.68 l -20.19,2.78 c -2.73,0.37 -5.76,0.41 -8.4,1.1 -3.06,0.85 -6.04,2.78 -8.74,4.23 z"
     transform="translate(-8.03,-28.71)"
     fill="#3e3e54"
     id="path202"
     style="display:inline" />
  <path
     d="m 306.43,270.88 a 286.35,286.35 0 0 0 -23.56,-19 c -2.69,0.84 -3.85,4.26 -3.19,7 0.66,2.74 2.65,5 4.57,7 7,7.61 14.17,15.2 22.72,21 a 8.19,8.19 0 0 0 4.2,1.76 c 2.64,0.08 4.71,-2.19 6.27,-4.32 a 92.89,92.89 0 0 0 14.33,-29 c 1.23,-4.22 2.16,-8.62 1.71,-13 -0.45,-4.38 -2.47,-8.75 -6.12,-11.21 -2.66,-1.79 -7.81,-2.92 -10.52,-0.53 -2.71,2.39 -1.95,7.62 -2.32,10.71 a 104.26,104.26 0 0 1 -8.09,29.59 z"
     transform="translate(-8.03,-28.71)"
     fill="#faaf90"
     id="path204"
     style="display:inline" />
  <path
     d="m 312.71,237.62 -1.84,15.11 a 1.75,1.75 0 0 0 1.17,2.2 89.32,89.32 0 0 0 13.72,6.27 11.86,11.86 0 0 0 6.49,0.84 2,2 0 0 0 1.06,-0.53 2.28,2.28 0 0 0 0.4,-1.05 79.36,79.36 0 0 0 1.29,-10.31 35.6,35.6 0 0 0 -0.55,-9.94 c -0.73,-3.25 -2.09,-13.61 -4.5,-15.91 -3.11,-3 -6.71,-2 -10.94,-1.45 -4.23,0.55 -5.89,11.43 -6.3,14.77 z"
     transform="translate(-8.03,-28.71)"
     fill="#68e1fd"
     id="path206"
     style="display:inline;fill:#67ba7c;fill-opacity:1"
     inkscape:label="sim" />
  <path
     d="m 360,328.57 a 8.14,8.14 0 0 1 2.44,1.11 35.33,35.33 0 0 0 8.06,3.48 c 1.11,0.32 2.51,1 2.34,2.12 a 1.86,1.86 0 0 1 -0.84,1.16 8,8 0 0 1 -4.65,1 71.38,71.38 0 0 1 -14.75,-1.12 c -2.79,-0.57 -4.75,-3.31 -2,-5.44 1.76,-1.34 7.4,-2.69 9.4,-2.31 z"
     transform="translate(-8.03,-28.71)"
     fill="#3e3e54"
     id="path208"
     style="display:inline" />
  <path
     d="m 246.73,249.32 h 20.61 a 3.13,3.13 0 0 1 3.13,3.13 v 16.34 A 13.44,13.44 0 0 1 257,282.23 v 0 a 13.44,13.44 0 0 1 -13.44,-13.44 v -16.33 a 3.13,3.13 0 0 1 3.13,-3.13 z"
     transform="rotate(-16.51,154.09661,279.12812)"
     fill="#68e1fd"
     id="path210"
     style="display:inline;fill:#67ba7c;fill-opacity:1"
     inkscape:label="sim]" />
  <path
     d="m 269.87,265.89 -1.34,-3.42 c 0.84,-0.34 3.22,-1.63 4,-3.49 a 3.71,3.71 0 0 0 -0.11,-3 c -1.7,-4.08 -5.64,-2.9 -6.42,-2.62 l -1.27,-3.44 c 2.73,-1.05 8.57,-1.37 11.08,4.65 a 7.31,7.31 0 0 1 0.09,5.83 c -1.52,3.6 -5.57,5.31 -6.03,5.49 z"
     transform="translate(-8.03,-28.71)"
     fill="#68e1fd"
     id="path212"
     style="display:inline;fill:#67ba7c;fill-opacity:1"
     inkscape:label="sim" />
  <path
     d="M227.29,260.31l16.35,2.7,2.76,9.33-19.5-9.4S225.13,260.59,227.29,260.31Z"
     transform="translate(-8.03 -28.71)"
     fill="#68e1fd"
     id="path214"
     inkscape:label="sim"
     style="fill:#67ba7c;fill-opacity:1" />
  <path
     d="M274.67,248.5a1,1,0,0,0-.76.37c-.16.33.07.7.1,1.06a1.52,1.52,0,0,1-.88,1.35,11.26,11.26,0,0,0-1.5.79,3,3,0,0,0-1,2.57,8.21,8.21,0,0,0,.84,2.71c.73,1.63,1.67,3.38,3.35,4a7,7,0,0,0,2.81.19l7.24-.51a.88.88,0,0,0,.51-.16.77.77,0,0,0,.16-.41c.52-3.06-1.12-6.71-2.67-9.27S277.25,248.17,274.67,248.5Z"
     transform="translate(-8.03 -28.71)"
     fill="#faaf90"
     id="path216" />
  <polygon
     points="175.93,291.28 175.57,138.91 171.56,287.63 "
     fill="#68e1fd"
     id="polygon218"
     style="display:inline;fill:#67ba7c;fill-opacity:1"
     inkscape:label="sim" />
  <path
     d="m 200.36,278.19 c 0,0 -2.67,-10.69 -4.61,-19.68 -1.94,-8.99 6.56,-9 10,-15.07 3.44,-6.07 -11.18,-15.79 -2.92,-25.52 8.26,-9.73 19.69,-4.61 17,-13.85 -2.69,-9.24 -4.61,-12.39 6.81,-14.33 11.42,-1.94 16.28,4.61 17.74,-4.14 1.46,-8.75 3.16,-11.9 14.82,-11.17 11.66,0.73 16.28,-2.68 16.28,-2.68 0,0 3.89,2.19 1,5.11 -2.89,2.92 -2.19,2.43 1.45,9 3.64,6.57 -8.5,5.59 -11.42,12.88 -2.92,7.29 7.54,6.32 1,14.33 -6.54,8.01 -18,-5.58 -15.31,6.32 2.69,11.9 9.24,12.64 1,16.53 -8.24,3.89 -18.6,2.59 -15.13,9.31 3.47,6.72 9.29,12.32 1,12.07 -8.29,-0.25 -18.95,-4.86 -17.49,1.46 1.46,6.32 6.31,11.18 -1.46,13.37 -7.77,2.19 -19.76,6.06 -19.76,6.06 z"
     transform="translate(-8.03,-28.71)"
     fill="#68e1fd"
     id="path220"
     style="display:inline;fill:#67ba7c;fill-opacity:1"
     inkscape:label="sim" />
  <path
     d="m 168.68,276.73 c 0,0 2.67,-10.69 4.61,-19.68 1.94,-8.99 -6.56,-9 -10,-15.07 -3.44,-6.07 11.18,-15.79 2.92,-25.51 -8.26,-9.72 -19.69,-4.62 -17,-13.85 2.69,-9.23 4.61,-12.4 -6.81,-14.34 -11.42,-1.94 -16.28,4.62 -17.74,-4.13 -1.46,-8.75 -3.16,-11.91 -14.82,-11.18 -11.66,0.73 -16.28,-2.67 -16.28,-2.67 0,0 -3.89,2.18 -1,5.1 2.89,2.92 2.18,2.43 -1.46,9 -3.64,6.57 8.5,5.59 11.42,12.88 2.92,7.29 -7.53,6.32 -1,14.34 6.53,8.02 18,-5.59 15.31,6.31 -2.69,11.9 -9.24,12.64 -1,16.53 8.24,3.89 18.6,2.59 15.13,9.31 -3.47,6.72 -9.29,12.32 -1,12.07 8.29,-0.25 19,-4.86 17.5,1.46 -1.5,6.32 -6.32,11.18 1.45,13.37 7.77,2.19 19.77,6.06 19.77,6.06 z"
     transform="translate(-8.03,-28.71)"
     fill="#68e1fd"
     id="path222"
     style="display:inline;fill:#67ba7c;fill-opacity:1"
     inkscape:label="sim" />
  <path
     d="m 200.36,278.19 c 0,0 -2.67,-10.69 -4.61,-19.68 -1.94,-8.99 6.56,-9 10,-15.07 3.44,-6.07 -11.18,-15.79 -2.92,-25.52 8.26,-9.73 19.69,-4.61 17,-13.85 -2.69,-9.24 -4.61,-12.39 6.81,-14.33 11.42,-1.94 16.28,4.61 17.74,-4.14 1.46,-8.75 3.16,-11.9 14.82,-11.17 11.66,0.73 16.28,-2.68 16.28,-2.68 0,0 3.89,2.19 1,5.11 -2.89,2.92 -2.19,2.43 1.45,9 3.64,6.57 -8.5,5.59 -11.42,12.88 -2.92,7.29 7.54,6.32 1,14.33 -6.54,8.01 -18,-5.58 -15.31,6.32 2.69,11.9 9.24,12.64 1,16.53 -8.24,3.89 -18.6,2.59 -15.13,9.31 3.47,6.72 9.29,12.32 1,12.07 -8.29,-0.25 -18.95,-4.86 -17.49,1.46 1.46,6.32 6.31,11.18 -1.46,13.37 -7.77,2.19 -19.76,6.06 -19.76,6.06 z"
     transform="translate(-8.03,-28.71)"
     fill="url(#linear-gradient-8)"
     id="path224"
     style="display:inline" />
  <path
     d="m 168.68,276.73 c 0,0 2.67,-10.69 4.61,-19.68 1.94,-8.99 -6.56,-9 -10,-15.07 -3.44,-6.07 11.18,-15.79 2.92,-25.51 -8.26,-9.72 -19.69,-4.62 -17,-13.85 2.69,-9.23 4.61,-12.4 -6.81,-14.34 -11.42,-1.94 -16.28,4.62 -17.74,-4.13 -1.46,-8.75 -3.16,-11.91 -14.82,-11.18 -11.66,0.73 -16.28,-2.67 -16.28,-2.67 0,0 -3.89,2.18 -1,5.1 2.89,2.92 2.18,2.43 -1.46,9 -3.64,6.57 8.5,5.59 11.42,12.88 2.92,7.29 -7.53,6.32 -1,14.34 6.53,8.02 18,-5.59 15.31,6.31 -2.69,11.9 -9.24,12.64 -1,16.53 8.24,3.89 18.6,2.59 15.13,9.31 -3.47,6.72 -9.29,12.32 -1,12.07 8.29,-0.25 19,-4.86 17.5,1.46 -1.5,6.32 -6.32,11.18 1.45,13.37 7.77,2.19 19.77,6.06 19.77,6.06 z"
     transform="translate(-8.03,-28.71)"
     fill="url(#linear-gradient-9)"
     id="path226"
     style="display:inline" />
  <path
     d="m 259.05,185.12 c 0,0 -61.6,64.4 -66,114 l -2.43,24.79 h 5.59 c 0,0 -8.12,-43.65 33.79,-100.15 41.91,-56.5 29.05,-38.64 29.05,-38.64 z"
     transform="translate(-8.03,-28.71)"
     fill="#68e1fd"
     id="path228"
     style="display:inline;fill:#67ba7c;fill-opacity:1"
     inkscape:label="sim" />
  <path
     d="m 96.11,175.28 c 0,0 33.89,23.33 48.89,45.56 15,22.23 33.17,72.17 28.79,95.5 l -2.3,1 c 0,0 2.63,-94.34 -75.38,-142.06 z"
     transform="translate(-8.03,-28.71)"
     fill="#68e1fd"
     id="path230"
     style="display:inline;fill:#67ba7c;fill-opacity:1"
     inkscape:label="sim" />
</svg>
