<?xml version="1.0" encoding="UTF-8" standalone="no"?>
<svg
   width="23.5"
   height="13.5"
   viewBox="0 0 23.5 13.5"
   stroke-width="1.5"
   fill="none"
   color="#000000"
   version="1.1"
   id="svg1507"
   sodipodi:docname="community.svg"
   inkscape:export-filename="..\Desktop\project\site\img\png\community.png"
   inkscape:export-xdpi="96"
   inkscape:export-ydpi="96"
   xmlns:inkscape="http://www.inkscape.org/namespaces/inkscape"
   xmlns:sodipodi="http://sodipodi.sourceforge.net/DTD/sodipodi-0.dtd"
   xmlns="http://www.w3.org/2000/svg"
   xmlns:svg="http://www.w3.org/2000/svg">
  <defs
     id="defs1511" />
  <sodipodi:namedview
     id="namedview1509"
     pagecolor="#ffffff"
     bordercolor="#000000"
     borderopacity="0.25"
     inkscape:showpageshadow="2"
     inkscape:pageopacity="0.0"
     inkscape:pagecheckerboard="0"
     inkscape:deskcolor="#d1d1d1"
     showgrid="false" />
  <path
     d="m 6.75,12.75 v -1 a 5,5 0 0 1 5,-5 v 0 a 5,5 0 0 1 5,5 v 1 m -16,0 v -1 a 3,3 0 0 1 3,-3 v 0 m 19,4 v -1 a 3,3 0 0 0 -3,-3 v 0 m -8,-2 a 3,3 0 1 0 0,-6 3,3 0 0 0 0,6 z m -8,2 a 2,2 0 1 0 0,-4 2,2 0 0 0 0,4 z m 16,0 a 2,2 0 1 0 0,-4 2,2 0 0 0 0,4 z"
     stroke="#000000"
     stroke-width="1.5"
     stroke-linecap="round"
     stroke-linejoin="round"
     id="path1505"
     style="stroke:#ffffff;stroke-opacity:1" />
</svg>
