<?xml version="1.0" encoding="UTF-8" standalone="no"?>
<svg
   width="17.5"
   height="19.5"
   viewBox="0 0 17.5 19.5"
   stroke-width="1.5"
   fill="none"
   color="#000000"
   version="1.1"
   id="svg24"
   sodipodi:docname="ecology-book.svg"
   inkscape:export-filename="ecology-book_white.png"
   inkscape:export-xdpi="96"
   inkscape:export-ydpi="96"
   xmlns:inkscape="http://www.inkscape.org/namespaces/inkscape"
   xmlns:sodipodi="http://sodipodi.sourceforge.net/DTD/sodipodi-0.dtd"
   xmlns="http://www.w3.org/2000/svg"
   xmlns:svg="http://www.w3.org/2000/svg">
  <defs
     id="defs28" />
  <sodipodi:namedview
     id="namedview26"
     pagecolor="#ffffff"
     bordercolor="#000000"
     borderopacity="0.25"
     inkscape:showpageshadow="2"
     inkscape:pageopacity="0.0"
     inkscape:pagecheckerboard="0"
     inkscape:deskcolor="#d1d1d1"
     showgrid="false" />
  <path
     d="m 0.75,16.75 v -14 a 2,2 0 0 1 2,-2 h 13.4 a 0.6,0.6 0 0 1 0.6,0.6 v 13.114"
     stroke="#000000"
     stroke-width="1.5"
     stroke-linecap="round"
     id="path16"
     style="display:inline;stroke:#ffffff;stroke-opacity:1" />
  <path
     d="m 6.75,11.75 c 0,0 0.9,-3.118 3,-5 M 9.552,10.175 9.418,10.187 A 3.094,3.094 0 0 1 6.052,7.413 3.06,3.06 0 0 1 8.813,4.063 l 2.986,-0.28 a 0.35,0.35 0 0 1 0.381,0.314 l 0.255,2.58 a 3.194,3.194 0 0 1 -2.883,3.498 z"
     stroke="#000000"
     stroke-width="1.5"
     stroke-linecap="round"
     stroke-linejoin="round"
     id="path18"
     style="display:inline;stroke:#ffffff;stroke-opacity:1" />
  <path
     d="m 2.75,14.75 h 14 m -14,4 h 14"
     stroke="#000000"
     stroke-width="1.5"
     stroke-linecap="round"
     id="path20"
     style="display:inline;stroke:#ffffff;stroke-opacity:1" />
  <path
     d="m 2.75,18.75 a 2,2 0 1 1 0,-4"
     stroke="#000000"
     stroke-width="1.5"
     stroke-linecap="round"
     stroke-linejoin="round"
     id="path22"
     style="display:inline;stroke:#ffffff;stroke-opacity:1" />
</svg>
